# xmcd
#
# Track frame offsets:
#	183
#	13173
#	23050
#	33075
#	42913
#	52838
#	64830
#	79838
#	90575
#	99813
#	110083
#	119143
#	128168
#	140750
#	157953
#	168818
#	184925
#	197368
#	212763
#
# Disc length: 3011 seconds
#
# Revision: 0
# Processed by: cddbd v1.4PL0 Copyright (c) Steve Scherf et al.
# Submitted via: dBpowerAMP V4.0
#
DISCID=f90bc113
DTITLE=Loved Ones - Magic Box
DYEAR=1967
DGENRE=Blues
TTITLE0=The Loved One
TTITLE1=Everlovin' Man
TTITLE2=Sad Dark Eyes
TTITLE3=A Love Like Ours
TTITLE4=Love Song
TTITLE5=Blueberry Hill
TTITLE6=Shake, Rattle and Roll
TTITLE7=This is Love
TTITLE8=Magic Box
TTITLE9=More than Love
TTITLE10=The Woman I Love
TTITLE11=The Loverly Car
TTITLE12=I Want You to Love Me
TTITLE13=(I'm no Good) Without You
TTITLE14=Everlovin' Man (Live)
TTITLE15=Ongo Bongo Man
TTITLE16=Rave On
TTITLE17=Oh Lonesome Me
TTITLE18=My Name is Earl
EXTD=Hugely popular Australian blues band from 1960's.
EXTT0=
EXTT1=
EXTT2=
EXTT3=
EXTT4=
EXTT5=
EXTT6=
EXTT7=
EXTT8=
EXTT9=
EXTT10=
EXTT11=
EXTT12=
EXTT13=
EXTT14=
EXTT15=
EXTT16=
EXTT17=
EXTT18=
PLAYORDER=
